<svg xmlns="http://www.w3.org/2000/svg" viewBox="0 0 256 256" width="48" height="48"><g fill="#fff" stroke-miterlimit="10" font-family="none" font-weight="none" font-size="none" text-anchor="none"><path d="M106.667 197.333c14.725 0 26.666-11.941 26.666-26.666V32.373h27.776c-.165-.746-.384-1.472-.517-2.234h-.005a47.484 47.484 0 01-.528-3.979v-4.453h-37.392V160c0 14.725-11.942 26.667-26.667 26.667-4.608 0-8.88-1.275-12.667-3.334 4.523 8.299 13.216 14 23.334 14z" fill-opacity=".749"/><path d="M179.83 60.837c-4.251-5.834-7.275-12.624-8.571-20.032h-.006a47.484 47.484 0 01-.528-3.978v-4.454h-9.616c2.619 11.638 9.392 21.664 18.72 28.464zM96 133.333c-14.725 0-26.667 11.942-26.667 26.667 0 10.117 5.702 18.81 14 23.333-2.058-3.786-3.333-8.058-3.333-12.666C80 155.94 91.941 144 106.667 144c1.829 0 3.61.187 5.333.539v-37.6c-1.765-.15-3.53-.272-5.333-.272-1.803 0-3.568.122-5.334.266v26.934a26.997 26.997 0 00-5.333-.534z"/><path d="M193.37 73.51c4.625 2.885 9.702 4.842 14.966 6.031V70.16a48.231 48.231 0 01-25.632-7.323c-.992-.618-1.925-1.317-2.87-2.005 3.665 5.04 8.235 9.37 13.537 12.677zm-92.037 33.423V96.267C99.568 96.123 97.803 96 96 96c-35.344 0-64 28.656-64 64 0 20.395 9.573 38.517 24.432 50.235-8.597-10.891-13.765-24.614-13.765-39.568 0-33.547 25.824-61.014 58.666-63.734z" fill-opacity=".749"/><path d="M208.33 79.541v25.243c-18 0-34.671-5.712-48.277-15.435l.016 70.65-.074-.095c0 .032.005.064.005.096 0 35.344-28.656 64-64 64-14.955 0-28.677-5.168-39.568-13.765 11.717 14.858 29.84 24.432 50.235 24.432 35.344 0 64-28.656 64-64 0-.032-.006-.064-.006-.096l.075.096-.01-70.656c13.605 9.722 30.277 15.434 48.277 15.434V80.827c-3.616.01-7.18-.502-10.672-1.286z"/><path d="M160 160c0-.032-.005-.064-.005-.096l.074.096-.01-70.656c13.605 9.723 30.277 15.435 48.277 15.435V79.536c-5.264-1.19-10.341-3.147-14.965-6.032-5.302-3.307-9.872-7.637-13.536-12.672-9.334-6.8-16.102-16.827-18.72-28.464h-27.782v138.299c0 14.725-11.941 26.666-26.666 26.666-10.118 0-18.811-5.701-23.334-14-8.298-4.522-14-13.216-14-23.333 0-14.725 11.942-26.667 26.667-26.667 1.83 0 3.61.187 5.333.539v-26.933c-32.842 2.714-58.666 30.18-58.666 63.728 0 14.954 5.168 28.677 13.765 39.568C67.322 218.832 81.045 224 96 224c35.344 0 64-28.656 64-64z"/></g></svg>