<svg xmlns="http://www.w3.org/2000/svg" viewBox="0 0 256 256" width="64" height="64"><path d="M86.32 28C54.164 28 28 54.18 28 86.344v83.328C28 201.832 54.18 228 86.344 228h83.328c32.16 0 58.328-26.18 58.328-58.344V86.32C228 54.164 201.82 28 169.656 28zM188 60c4.416 0 8 3.584 8 8s-3.584 8-8 8-8-3.584-8-8 3.584-8 8-8zm-60 16c28.68 0 52 23.32 52 52s-23.324 52-52 52c-28.68 0-52-23.324-52-52s23.32-52 52-52zm0 16c-19.884 0-36 16.116-36 36s16.116 36 36 36 36-16.116 36-36-16.116-36-36-36z" fill="#fff" font-family="none" font-weight="none" font-size="none" text-anchor="none"/></svg>