<svg xmlns="http://www.w3.org/2000/svg" viewBox="0 0 256 256" width="64" height="64"><path d="M224 69.849a77.523 77.523 0 01-18.933 19.69c.071 1.633.107 3.275.107 4.922 0 50.254-38.144 108.206-107.919 108.206-21.422 0-49.34-7.524-58.144-17.085 2.973.356 5.995.534 9.053.534 17.774 0 34.133-6.084 47.107-16.285-16.597-.305-30.606-11.306-35.434-26.417 7.552 1.187 17.13-.655 17.13-.655s-29.66-5.105-30.428-37.767c8.576 4.985 17.18 4.757 17.18 4.757S46.613 99.19 46.852 78.101c.138-12.44 5.127-19.128 5.127-19.128 32.409 40.017 78.183 39.744 78.183 39.744s-.981-5.682-.981-8.662c0-20.999 16.977-38.034 37.927-38.034 10.908 0 20.764 4.623 27.683 12.015a76.02 76.02 0 0024.093-9.234c-3.31 13.287-16.676 21.042-16.676 21.042s11.446-1.28 21.792-5.995z" fill="#fff" font-family="none" font-weight="none" font-size="none" text-anchor="none"/></svg>