<svg xmlns="http://www.w3.org/2000/svg" viewBox="0 0 72 72" width="64" height="64"><path d="M63 19.645a21.803 21.803 0 01-5.325 5.538c.02.459.03.921.03 1.384C57.705 40.701 46.977 57 27.353 57 21.328 57 13.476 54.884 11 52.195c.836.1 1.686.15 2.546.15 4.999 0 9.6-1.711 13.249-4.58-4.668-.086-8.608-3.18-9.966-7.43 2.124.334 4.818-.184 4.818-.184s-8.342-1.436-8.558-10.622c2.412 1.402 4.832 1.338 4.832 1.338s-4.811-2.97-4.744-8.901c.039-3.499 1.442-5.38 1.442-5.38 9.115 11.255 21.989 11.178 21.989 11.178s-.276-1.598-.276-2.436c0-5.906 4.775-10.697 10.667-10.697 3.068 0 5.84 1.3 7.786 3.379a21.38 21.38 0 006.776-2.597c-.931 3.737-4.69 5.918-4.69 5.918s3.219-.36 6.129-1.686z"/></svg>