<svg xmlns="http://www.w3.org/2000/svg" viewBox="0 0 256 256" width="50" height="50"><path d="M128 10.24C63.024 10.24 10.24 63.024 10.24 128S63.024 245.76 128 245.76 245.76 192.976 245.76 128 192.976 10.24 128 10.24zm0 10.24c59.442 0 107.52 48.078 107.52 107.52 0 59.442-48.078 107.52-107.52 107.52a107.713 107.713 0 01-31.25-4.62c4.404-7.364 10.09-17.89 12.35-26.58 1.342-5.153 6.86-26.17 6.86-26.17 3.586 6.846 14.064 12.64 25.22 12.64 33.198 0 57.13-30.53 57.13-68.47 0-36.373-29.68-63.58-67.87-63.58-47.512 0-72.73 31.888-72.73 66.61 0 16.148 8.588 36.248 22.34 42.65 2.083.97 3.202.55 3.68-1.47.368-1.533 2.226-9.004 3.06-12.48.267-1.11.138-2.068-.76-3.16-4.551-5.52-8.2-15.662-8.2-25.12 0-24.281 18.382-47.78 49.7-47.78 27.042 0 45.98 18.434 45.98 44.79 0 29.777-15.035 50.41-34.6 50.41-10.805 0-18.895-8.939-16.3-19.9 3.112-13.083 9.12-27.2 9.12-36.65 0-8.45-4.535-15.5-13.93-15.5-11.046 0-19.92 11.42-19.92 26.73 0 9.742 3.3 16.34 3.3 16.34s-10.912 46.134-12.91 54.72c-2.003 8.58-1.466 20.136-.64 28.74-39.394-15.945-67.15-54.515-67.15-99.67C20.48 68.558 68.558 20.48 128 20.48z" fill="none" font-family="none" font-weight="none" font-size="none" text-anchor="none"/></svg>